<svg xmlns="http://www.w3.org/2000/svg" width="200" height="200" viewBox="0 0 200 200"><rect width="100%" height="100%" fill="#DDDDDD"/><path fill="#999999" d="m83.975 75.6-3.25-5.15q1.7-1.5 3.73-2.85 2.02-1.35 4.37-2.35t5.1-1.58q2.75-.57 5.95-.57 4.35 0 7.93 1.2 3.57 1.2 6.12 3.42 2.55 2.23 3.95 5.38t1.4 7.05q0 3.8-1.1 6.57-1.1 2.78-2.75 4.83t-3.62 3.55q-1.98 1.5-3.73 2.83-1.75 1.32-3.02 2.59-1.28 1.28-1.53 2.88l-1.15 7.3h-8.45l-.85-8.15q-.3-2.35.67-4.12.98-1.78 2.61-3.26 1.62-1.47 3.62-2.85 2-1.37 3.75-3 1.75-1.62 2.93-3.65 1.17-2.02 1.17-4.82 0-1.8-.67-3.23-.68-1.42-1.88-2.45-1.2-1.02-2.87-1.57-1.68-.55-3.63-.55-2.85 0-4.82.62-1.98.63-3.35 1.4-1.38.78-2.33 1.4-.95.63-1.7.63-1.8 0-2.6-1.5m6.2 53.8q0-1.55.58-2.95.57-1.4 1.57-2.4t2.4-1.6 3-.6 2.98.6q1.37.6 2.4 1.6 1.02 1 1.62 2.4t.6 2.95q0 1.6-.6 2.97-.6 1.38-1.62 2.38-1.03 1-2.4 1.58-1.38.57-2.98.57t-3-.57q-1.4-.58-2.4-1.58t-1.57-2.38q-.58-1.37-.58-2.97"/></svg>